<svg width="93.000000" height="106.000000" viewBox="0 0 93 106" fill="none" xmlns="http://www.w3.org/2000/svg" xmlns:xlink="http://www.w3.org/1999/xlink">
	<desc>
			Created with Pixso.
	</desc>
	<defs>
		<linearGradient x1="6.642883" y1="4.590538" x2="77.223228" y2="109.338600" id="paint_linear_132_71_0" gradientUnits="userSpaceOnUse">
			<stop stop-color="#D4145A"/>
			<stop offset="1.000000" stop-color="#2E3192"/>
		</linearGradient>
	</defs>
	<path id="Vector" d="M93 75.58L93 30.41C93 27.6 91.52 25.02 89.11 23.62L50.38 1.04C47.97 -0.35 45.02 -0.35 42.61 1.04L3.88 23.62C1.47 25.02 0 27.62 0 30.41L0 75.58C0 78.39 1.47 80.97 3.88 82.37L42.61 104.95C45.02 106.34 47.97 106.34 50.38 104.95L89.11 82.37C91.5 80.97 93 78.37 93 75.58ZM90.23 27.38Q91 28.67 91 30.41L91 75.58Q91 77.29 90.25 78.57Q89.53 79.81 88.11 80.64L49.37 103.22Q47.93 104.06 46.49 104.06Q45.05 104.05 43.62 103.22L4.88 80.63Q3.48 79.82 2.76 78.61Q2 77.32 2 75.58L2 30.41Q2 28.67 2.76 27.39Q3.48 26.17 4.88 25.35L43.62 2.77Q45.06 1.93 46.5 1.94Q47.94 1.94 49.37 2.77L88.11 25.36Q89.51 26.17 90.23 27.38Z" fill="url(#paint_linear_132_71_0)" fill-opacity="1.000000" fill-rule="evenodd"/>
</svg>
